<svg width="16" height="16" viewBox="0 0 16 16" fill="none" xmlns="http://www.w3.org/2000/svg">
<path d="M14 14.668H2C1.72667 14.668 1.5 14.4413 1.5 14.168C1.5 13.8946 1.72667 13.668 2 13.668H14C14.2733 13.668 14.5 13.8946 14.5 14.168C14.5 14.4413 14.2733 14.668 14 14.668Z" fill="white"/>
<path d="M12.6765 2.3341C11.3831 1.04077 10.1165 1.00744 8.7898 2.3341L7.98314 3.14077C7.91647 3.20744 7.8898 3.3141 7.91647 3.40744C8.42314 5.1741 9.83647 6.58744 11.6031 7.0941C11.6298 7.10077 11.6565 7.10744 11.6831 7.10744C11.7565 7.10744 11.8231 7.08077 11.8765 7.02744L12.6765 6.22077C13.3365 5.56744 13.6565 4.9341 13.6565 4.2941C13.6631 3.6341 13.3431 2.9941 12.6765 2.3341Z" fill="white"/>
<path d="M10.3743 7.67677C10.181 7.58344 9.99433 7.4901 9.81433 7.38344C9.66766 7.29677 9.52766 7.20344 9.38766 7.10344C9.27433 7.0301 9.14099 6.92344 9.01433 6.81677C9.00099 6.8101 8.95433 6.7701 8.90099 6.71677C8.68099 6.5301 8.43433 6.2901 8.21433 6.02344C8.19433 6.0101 8.16099 5.96344 8.11433 5.90344C8.04766 5.82344 7.93433 5.6901 7.83433 5.53677C7.75433 5.43677 7.66099 5.2901 7.57433 5.14344C7.46766 4.96344 7.37433 4.78344 7.28099 4.59677C7.15862 4.33454 6.81445 4.25665 6.60983 4.46126L2.86099 8.2101C2.77433 8.29677 2.69433 8.46344 2.67433 8.57677L2.31433 11.1301C2.24766 11.5834 2.37433 12.0101 2.65433 12.2968C2.89433 12.5301 3.22766 12.6568 3.58766 12.6568C3.66766 12.6568 3.74766 12.6501 3.82766 12.6368L6.38766 12.2768C6.50766 12.2568 6.67433 12.1768 6.75433 12.0901L10.5094 8.33508C10.7099 8.13455 10.6345 7.78953 10.3743 7.67677Z" fill="white"/>
</svg>
