<svg width="141" height="22" viewBox="0 0 141 22" fill="none" xmlns="http://www.w3.org/2000/svg">
<path d="M46.188 17V4.4H48.564V14.84H54.324V17H46.188ZM60.0839 17.252C59.1959 17.252 58.4099 17.066 57.7259 16.694C57.0539 16.31 56.5259 15.776 56.1419 15.092C55.7699 14.396 55.5839 13.58 55.5839 12.644V12.428C55.5839 11.492 55.7699 10.682 56.1419 9.998C56.5139 9.302 57.0359 8.768 57.7079 8.396C58.3799 8.012 59.1599 7.82 60.0479 7.82C60.9239 7.82 61.6859 8.018 62.3339 8.414C62.9819 8.798 63.4859 9.338 63.8459 10.034C64.2059 10.718 64.3859 11.516 64.3859 12.428V13.202H57.8879C57.9119 13.814 58.1399 14.312 58.5719 14.696C59.0039 15.08 59.5319 15.272 60.1559 15.272C60.7919 15.272 61.2599 15.134 61.5599 14.858C61.8599 14.582 62.0879 14.276 62.2439 13.94L64.0979 14.912C63.9299 15.224 63.6839 15.566 63.3599 15.938C63.0479 16.298 62.6279 16.61 62.0999 16.874C61.5719 17.126 60.8999 17.252 60.0839 17.252ZM57.9059 11.51H62.0819C62.0339 10.994 61.8239 10.58 61.4519 10.268C61.0919 9.956 60.6179 9.8 60.0299 9.8C59.4179 9.8 58.9319 9.956 58.5719 10.268C58.2119 10.58 57.9899 10.994 57.9059 11.51ZM69.5257 17C68.9377 17 68.4577 16.82 68.0857 16.46C67.7257 16.088 67.5457 15.596 67.5457 14.984V9.944H65.3137V8.072H67.5457V5.3H69.8137V8.072H72.2617V9.944H69.8137V14.588C69.8137 14.948 69.9817 15.128 70.3177 15.128H72.0457V17H69.5257ZM74.6525 9.926V8.702H75.3545C75.9065 8.702 76.1825 8.426 76.1825 7.874V7.298H75.8765C75.3965 7.298 74.9945 7.154 74.6705 6.866C74.3585 6.578 74.2025 6.212 74.2025 5.768C74.2025 5.288 74.3585 4.898 74.6705 4.598C74.9945 4.298 75.3965 4.148 75.8765 4.148C76.3685 4.148 76.7705 4.304 77.0825 4.616C77.3945 4.916 77.5505 5.324 77.5505 5.84V7.91C77.5505 9.254 76.8785 9.926 75.5345 9.926H74.6525ZM83.3137 17.252C82.1497 17.252 81.1957 17 80.4517 16.496C79.7077 15.992 79.2577 15.272 79.1017 14.336L81.1897 13.796C81.2737 14.216 81.4117 14.546 81.6037 14.786C81.8077 15.026 82.0537 15.2 82.3417 15.308C82.6417 15.404 82.9657 15.452 83.3137 15.452C83.8417 15.452 84.2317 15.362 84.4837 15.182C84.7357 14.99 84.8617 14.756 84.8617 14.48C84.8617 14.204 84.7417 13.994 84.5017 13.85C84.2617 13.694 83.8777 13.568 83.3497 13.472L82.8457 13.382C82.2217 13.262 81.6517 13.1 81.1357 12.896C80.6197 12.68 80.2057 12.386 79.8937 12.014C79.5817 11.642 79.4257 11.162 79.4257 10.574C79.4257 9.686 79.7497 9.008 80.3977 8.54C81.0457 8.06 81.8977 7.82 82.9537 7.82C83.9497 7.82 84.7777 8.042 85.4377 8.486C86.0977 8.93 86.5297 9.512 86.7337 10.232L84.6277 10.88C84.5317 10.424 84.3337 10.1 84.0337 9.908C83.7457 9.716 83.3857 9.62 82.9537 9.62C82.5217 9.62 82.1917 9.698 81.9637 9.854C81.7357 9.998 81.6217 10.202 81.6217 10.466C81.6217 10.754 81.7417 10.97 81.9817 11.114C82.2217 11.246 82.5457 11.348 82.9537 11.42L83.4577 11.51C84.1297 11.63 84.7357 11.792 85.2757 11.996C85.8277 12.188 86.2597 12.47 86.5717 12.842C86.8957 13.202 87.0577 13.694 87.0577 14.318C87.0577 15.254 86.7157 15.98 86.0317 16.496C85.3597 17 84.4537 17.252 83.3137 17.252ZM95.6725 17L92.4685 4.4H94.9165L97.5805 15.47H97.8325L100.497 4.4H102.945L99.7405 17H95.6725ZM104.531 17V8.072H106.799V17H104.531ZM105.665 7.028C105.257 7.028 104.909 6.896 104.621 6.632C104.345 6.368 104.207 6.02 104.207 5.588C104.207 5.156 104.345 4.808 104.621 4.544C104.909 4.28 105.257 4.148 105.665 4.148C106.085 4.148 106.433 4.28 106.709 4.544C106.985 4.808 107.123 5.156 107.123 5.588C107.123 6.02 106.985 6.368 106.709 6.632C106.433 6.896 106.085 7.028 105.665 7.028ZM112.913 17.252C112.205 17.252 111.539 17.078 110.915 16.73C110.303 16.37 109.811 15.848 109.439 15.164C109.067 14.48 108.881 13.652 108.881 12.68V12.392C108.881 11.42 109.067 10.592 109.439 9.908C109.811 9.224 110.303 8.708 110.915 8.36C111.527 8 112.193 7.82 112.913 7.82C113.453 7.82 113.903 7.886 114.263 8.018C114.635 8.138 114.935 8.294 115.163 8.486C115.391 8.678 115.565 8.882 115.685 9.098H116.009V4.4H118.277V17H116.045V15.92H115.721C115.517 16.256 115.199 16.562 114.767 16.838C114.347 17.114 113.729 17.252 112.913 17.252ZM113.597 15.272C114.293 15.272 114.875 15.05 115.343 14.606C115.811 14.15 116.045 13.49 116.045 12.626V12.446C116.045 11.582 115.811 10.928 115.343 10.484C114.887 10.028 114.305 9.8 113.597 9.8C112.901 9.8 112.319 10.028 111.851 10.484C111.383 10.928 111.149 11.582 111.149 12.446V12.626C111.149 13.49 111.383 14.15 111.851 14.606C112.319 15.05 112.901 15.272 113.597 15.272ZM124.859 17.252C123.971 17.252 123.185 17.066 122.501 16.694C121.829 16.31 121.301 15.776 120.917 15.092C120.545 14.396 120.359 13.58 120.359 12.644V12.428C120.359 11.492 120.545 10.682 120.917 9.998C121.289 9.302 121.811 8.768 122.483 8.396C123.155 8.012 123.935 7.82 124.823 7.82C125.699 7.82 126.461 8.018 127.109 8.414C127.757 8.798 128.261 9.338 128.621 10.034C128.981 10.718 129.161 11.516 129.161 12.428V13.202H122.663C122.687 13.814 122.915 14.312 123.347 14.696C123.779 15.08 124.307 15.272 124.931 15.272C125.567 15.272 126.035 15.134 126.335 14.858C126.635 14.582 126.863 14.276 127.019 13.94L128.873 14.912C128.705 15.224 128.459 15.566 128.135 15.938C127.823 16.298 127.403 16.61 126.875 16.874C126.347 17.126 125.675 17.252 124.859 17.252ZM122.681 11.51H126.857C126.809 10.994 126.599 10.58 126.227 10.268C125.867 9.956 125.393 9.8 124.805 9.8C124.193 9.8 123.707 9.956 123.347 10.268C122.987 10.58 122.765 10.994 122.681 11.51ZM135.428 17.252C134.54 17.252 133.742 17.072 133.034 16.712C132.326 16.352 131.768 15.83 131.36 15.146C130.952 14.462 130.748 13.64 130.748 12.68V12.392C130.748 11.432 130.952 10.61 131.36 9.926C131.768 9.242 132.326 8.72 133.034 8.36C133.742 8 134.54 7.82 135.428 7.82C136.316 7.82 137.114 8 137.822 8.36C138.53 8.72 139.088 9.242 139.496 9.926C139.904 10.61 140.108 11.432 140.108 12.392V12.68C140.108 13.64 139.904 14.462 139.496 15.146C139.088 15.83 138.53 16.352 137.822 16.712C137.114 17.072 136.316 17.252 135.428 17.252ZM135.428 15.236C136.124 15.236 136.7 15.014 137.156 14.57C137.612 14.114 137.84 13.466 137.84 12.626V12.446C137.84 11.606 137.612 10.964 137.156 10.52C136.712 10.064 136.136 9.836 135.428 9.836C134.732 9.836 134.156 10.064 133.7 10.52C133.244 10.964 133.016 11.606 133.016 12.446V12.626C133.016 13.466 133.244 14.114 133.7 14.57C134.156 15.014 134.732 15.236 135.428 15.236Z" fill="black"/>
<path d="M20.0386 12.038L24 10.9995L20.0386 9.96091L19 6L17.9614 9.96091L14 10.9995L17.9614 12.038H17.9622L17.9614 12.0387L19 16L20.0386 12.0387L20.0376 12.0378L20.0386 12.038Z" fill="black"/>
<path d="M37.6003 15.5927C37.3972 15.1016 37.1595 14.6379 36.8843 14.2189C36.754 14.0008 36.6037 13.8071 36.4636 13.6008C36.3147 13.4057 36.1667 13.2092 36.0125 13.0209C35.6045 12.5219 35.1664 12.062 34.7136 11.624C34.1673 12.0711 33.5708 12.5444 33.0516 12.9513C33.4962 13.4076 33.9149 13.879 34.2976 14.3672C34.812 15.0191 35.2333 15.7176 35.5081 16.398C35.6383 16.7379 35.7167 17.0714 35.7369 17.3738C35.7568 17.6776 35.7124 17.9398 35.6123 18.173C35.5101 18.4055 35.3449 18.6157 35.1069 18.8084C34.8695 18.9996 34.5694 19.1697 34.2293 19.3067C33.5403 19.5744 32.7355 19.7414 31.9036 19.8126C30.2323 19.9614 28.4744 19.8386 26.7336 19.6019C24.9899 19.3534 23.2472 18.9866 21.525 18.5217C21.3455 18.4739 21.1664 18.4245 20.9873 18.3745C21.3151 18.2254 21.6418 18.0739 21.9664 17.9191C21.9885 17.9107 22.0105 17.9028 22.0326 17.8944C25.4185 16.5867 28.7161 14.973 31.729 12.8394C31.9228 12.6895 32.1526 12.5107 32.4025 12.3152C32.8823 11.9396 33.4364 11.5014 33.9559 11.0794C33.9871 11.0539 34.0181 11.0287 34.0492 11.0034C34.048 11.0023 34.0468 11.0011 34.0456 10.9999C34.7371 10.3796 35.4066 9.71986 36.0127 8.97854C36.1667 8.79018 36.3148 8.59389 36.4637 8.39865C36.6039 8.19234 36.7541 7.99859 36.8845 7.78046C37.1596 7.3617 37.3973 6.89791 37.6004 6.40689C37.7957 5.90839 37.9443 5.36216 37.9881 4.76821C38.0322 4.1777 37.9506 3.52435 37.6882 2.93054C37.4258 2.33689 36.9998 1.83241 36.5328 1.46272C36.0639 1.09019 35.559 0.826276 35.0575 0.628641C34.932 0.579868 34.8067 0.540221 34.6809 0.496684L34.492 0.434894L34.3039 0.385374C34.1786 0.353207 34.053 0.318497 33.9279 0.289472L33.5542 0.215268C33.3042 0.161408 33.0588 0.138516 32.8109 0.0997669C32.5653 0.0749316 32.3193 0.0487503 32.0753 0.0322932C31.0991 -0.0324881 30.1407 0.00730808 29.197 0.0886961C28.2528 0.170234 27.3241 0.317899 26.407 0.494289C24.2775 0.919033 22.2144 1.53887 20.2112 2.29275C21.1591 2.69865 22.0285 3.08599 22.3998 3.25236C23.8364 2.89404 25.2848 2.60469 26.7339 2.39823C28.4745 2.16155 30.2326 2.03857 31.9039 2.18758C32.7358 2.25879 33.5404 2.42576 34.2296 2.69341C34.5697 2.83046 34.8698 3.00056 35.1072 3.19176C35.345 3.38431 35.5102 3.59452 35.6126 3.82716C35.7127 4.0604 35.7573 4.32252 35.7372 4.62638C35.717 4.92874 35.6385 5.26222 35.5084 5.60214C35.2336 6.28256 34.8123 6.98109 34.2979 7.6328C33.739 8.34569 33.1023 9.02178 32.4208 9.66824C32.2198 9.51639 32.0174 9.36678 31.8137 9.22001C28.7782 7.05665 25.4503 5.4259 22.0329 4.10603C22.0108 4.09765 21.9888 4.08972 21.9667 4.08135C21.6422 3.9265 21.3154 3.77509 20.9876 3.62593C20.9948 3.62384 21.0021 3.62204 21.0093 3.61995C20.4269 3.36426 19.7053 3.05158 19.0123 2.76253C19.0081 2.76418 19.0039 2.76597 18.9998 2.76777C16.6195 1.79799 14.1537 1.00566 11.5924 0.494739C10.6753 0.318349 9.74657 0.170682 8.80243 0.0891447C7.85875 0.00775666 6.90026 -0.0321891 5.92411 0.0327418C5.68007 0.0491989 5.43407 0.0753813 5.18852 0.100217C4.94071 0.138966 4.69516 0.161855 4.44523 0.215715L4.07148 0.289922C3.94644 0.319096 3.82079 0.353657 3.69545 0.385823L3.50744 0.435343L3.31852 0.497132C3.19273 0.540668 3.06739 0.580315 2.94189 0.629088C2.44053 0.826724 1.93554 1.09064 1.46664 1.46317C0.999709 1.83285 0.573699 2.33734 0.311237 2.93099C0.0487758 3.5248 -0.0327716 4.17829 0.0113244 4.76866C0.0551183 5.36261 0.203716 5.90884 0.398977 6.40734C0.60209 6.89836 0.839786 7.36215 1.11493 7.78091C1.24526 7.99904 1.39552 8.19279 1.53566 8.3991C1.68456 8.59419 1.8327 8.79063 1.98673 8.97899C2.3919 9.4745 2.82682 9.93141 3.27624 10.3666C3.8066 9.92513 4.39887 9.44847 4.92848 9.02806C4.49114 8.57803 4.07888 8.11364 3.70179 7.63265C3.18744 6.98079 2.76612 6.28226 2.49127 5.60198C2.3611 5.26207 2.28272 4.92859 2.26249 4.62623C2.24255 4.32237 2.28695 4.06025 2.38707 3.82701C2.48946 3.59451 2.65452 3.38431 2.89251 3.19161C3.12991 3.00041 3.42997 2.8303 3.77005 2.69326C4.45913 2.42561 5.26388 2.25864 6.09581 2.18743C7.76708 2.03857 9.52503 2.1614 11.2658 2.39808C13.0095 2.64658 14.7522 3.01343 16.4744 3.47827C16.6539 3.52599 16.833 3.57551 17.0121 3.62548C16.6843 3.77479 16.3576 3.92605 16.033 4.0809C16.0109 4.08928 15.9889 4.09721 15.9668 4.10558C12.5494 5.42545 9.22149 7.0562 6.18597 9.21956C5.9821 9.36633 5.77989 9.51594 5.57889 9.6678C5.57784 9.6669 5.57693 9.66585 5.57587 9.66495C5.50248 9.72315 5.42788 9.7824 5.35207 9.84269C5.06258 10.0732 4.75889 10.317 4.46019 10.5599C4.28335 10.7037 4.10878 10.847 3.93994 10.9869C3.94462 10.9912 3.94931 10.9956 3.95414 10.9999C3.26265 11.6202 2.59305 12.28 1.98704 13.0213C1.833 13.2097 1.68486 13.4061 1.53596 13.6012C1.39582 13.8075 1.24556 14.0013 1.11523 14.2194C0.840088 14.6381 0.602392 15.1019 0.399278 15.5931C0.204018 16.0916 0.0554202 16.6378 0.0116263 17.2318C-0.0324697 17.8223 0.0490776 18.4757 0.311539 19.0695C0.57385 19.6631 0.999859 20.1676 1.46694 20.5373C1.93584 20.9098 2.44083 21.1737 2.9422 21.3714C3.06769 21.4201 3.19303 21.4598 3.31882 21.5033L3.50774 21.5651L3.69575 21.6146C3.8211 21.6468 3.94674 21.6815 4.07178 21.7105L4.44554 21.7847C4.69546 21.8386 4.94101 21.8615 5.18883 21.9002C5.43437 21.9251 5.68037 21.9513 5.92441 21.9677C6.90056 22.0325 7.85905 21.9927 8.80273 21.9113C9.74687 21.8298 10.6756 21.6821 11.5927 21.5057C13.7314 21.079 15.8031 20.4557 17.8143 19.6975C16.9614 19.3356 16.1322 18.97 15.6211 18.7424C14.1776 19.1031 12.7221 19.3943 11.2659 19.6018C9.52533 19.8385 7.76723 19.9614 6.09596 19.8124C5.26403 19.7412 4.45943 19.5742 3.7702 19.3066C3.43012 19.1695 3.13006 18.9994 2.89266 18.8082C2.65467 18.6157 2.48961 18.4053 2.38722 18.1728C2.2871 17.9396 2.24255 17.6775 2.26263 17.3736C2.28287 17.0713 2.3614 16.7378 2.49142 16.3979C2.76626 15.7174 3.18759 15.0189 3.70195 14.3671C4.26085 13.6542 4.89752 12.9781 5.57904 12.3316C5.78004 12.4835 5.9824 12.6331 6.18612 12.7798C9.04994 14.821 12.1743 16.3875 15.3883 17.6667C15.422 17.6733 15.4555 17.6829 15.4881 17.6975C15.4922 17.6993 15.5453 17.7233 15.6364 17.7641C15.7466 17.8073 15.8567 17.8513 15.9671 17.894C15.989 17.9023 16.0112 17.9103 16.0333 17.9187C16.3255 18.0581 16.6193 18.1944 16.9141 18.3293C16.9476 18.344 16.9809 18.3585 17.015 18.3735C17.6304 18.642 18.3509 18.9514 19.0171 19.2255C19.5528 19.4459 20.0532 19.6432 20.4355 19.7777C20.4706 19.7901 20.5025 19.8075 20.5324 19.8269C22.4349 20.5268 24.3916 21.1034 26.4076 21.5056C27.3247 21.682 28.2534 21.8296 29.1976 21.9112C30.1414 21.9925 31.0997 22.0325 32.0759 21.9676C32.3199 21.9511 32.5659 21.9249 32.8115 21.9001C33.0593 21.8613 33.3048 21.8384 33.5548 21.7846L33.9285 21.7104C34.0536 21.6812 34.1792 21.6466 34.3046 21.6145L34.4926 21.565L34.6815 21.5032C34.8073 21.4596 34.9326 21.42 35.0581 21.3712C35.5595 21.1736 36.0645 20.9097 36.5334 20.5371C37.0003 20.1674 37.4263 19.663 37.6888 19.0693C37.9512 18.4755 38.0328 17.8222 37.9887 17.2316C37.944 16.6374 37.7954 16.091 37.6003 15.5927ZM16.4834 16.8895C16.4627 16.8796 16.4419 16.87 16.4212 16.86C14.8078 16.0764 13.2353 15.2192 11.7217 14.2813C10.2058 13.3481 8.74882 12.333 7.37746 11.2378C7.28036 11.1591 7.18477 11.0791 7.08843 10.9995C7.18462 10.9199 7.28036 10.8398 7.37746 10.7611C8.74882 9.666 10.2058 8.65104 11.7217 7.71763C13.2353 6.77972 14.8078 5.92245 16.4212 5.13894C16.4419 5.12907 16.4627 5.11949 16.4834 5.10947C17.316 4.79424 18.1549 4.49831 18.9995 4.22422C19.8441 4.49816 20.683 4.79409 21.5155 5.10947C21.5362 5.11934 21.557 5.12892 21.5777 5.13894C23.1912 5.9226 24.7637 6.77972 26.2773 7.71763C27.7931 8.65089 29.2501 9.666 30.6215 10.7611C30.7186 10.8397 30.8142 10.9199 30.9105 10.9995C30.8143 11.0791 30.7186 11.1591 30.6215 11.2378C29.2501 12.3328 27.7931 13.3479 26.2773 14.2813C24.7637 15.2192 23.1912 16.0765 21.5777 16.86C21.557 16.8699 21.5362 16.8796 21.5155 16.8895C20.683 17.2047 19.8441 17.5006 18.9995 17.7747C18.1549 17.5006 17.316 17.2047 16.4834 16.8895Z" fill="black"/>
</svg>
