<svg width="40" height="41" viewBox="0 0 40 41" fill="none" xmlns="http://www.w3.org/2000/svg">
<g filter="url(#filter0_d_29517_12758)">
<rect x="4" y="4.46094" width="32" height="32" rx="4" fill="white"/>
<path d="M19.6995 27.8209C19.4573 27.8209 19.2525 27.6455 19.1938 27.4105C19.0069 26.6615 18.6489 25.8649 18.12 25.021C17.4933 24.0076 16.6 23.0676 15.44 22.2009C14.4311 21.4384 13.4222 20.9184 12.4133 20.641C12.1743 20.5753 12 20.3634 12 20.1156C12 19.8726 12.1676 19.6632 12.4013 19.5965C13.3904 19.3141 14.3433 18.8555 15.26 18.2209C16.3133 17.4876 17.1933 16.6076 17.9 15.5809C18.5252 14.6664 18.9543 13.7618 19.1874 12.8674C19.2485 12.633 19.4548 12.4609 19.697 12.4609C19.9418 12.4609 20.1496 12.6369 20.2092 12.8744C20.3437 13.4106 20.554 13.9595 20.84 14.5209C21.2 15.2143 21.66 15.8809 22.22 16.5209C22.7933 17.1476 23.4334 17.7143 24.14 18.2209C25.0634 18.8755 26.0022 19.3354 26.9563 19.6006C27.1904 19.6656 27.36 19.874 27.36 20.1169C27.36 20.3635 27.1853 20.5736 26.9475 20.6388C26.3427 20.8046 25.7202 21.0721 25.08 21.4409C24.3067 21.8943 23.5867 22.4343 22.92 23.0609C22.2533 23.6743 21.7067 24.3209 21.28 25.0009C20.7501 25.8466 20.3917 26.6494 20.2051 27.4092C20.1472 27.6449 19.9421 27.8209 19.6995 27.8209Z" fill="#2E2A4F"/>
<path d="M11.2081 15.982C11.1072 15.982 11.0219 15.9089 10.9974 15.811C10.9195 15.4989 10.7704 15.167 10.55 14.8154C10.2889 14.3931 9.91667 14.0015 9.43333 13.6404C9.01296 13.3226 8.59258 13.106 8.1722 12.9904C8.07264 12.963 8 12.8747 8 12.7715C8 12.6702 8.06985 12.583 8.16719 12.5552C8.57934 12.4375 8.97639 12.2465 9.35833 11.982C9.79722 11.6765 10.1639 11.3098 10.4583 10.882C10.7188 10.501 10.8976 10.1241 10.9948 9.75138C11.0202 9.65374 11.1062 9.58203 11.2071 9.58203C11.3091 9.58203 11.3956 9.65533 11.4205 9.7543C11.4765 9.97772 11.5642 10.2064 11.6833 10.4404C11.8333 10.7293 12.025 11.007 12.2583 11.2737C12.4972 11.5348 12.7639 11.7709 13.0583 11.982C13.4431 12.2548 13.8342 12.4464 14.2318 12.5569C14.3293 12.584 14.4 12.6708 14.4 12.772C14.4 12.8748 14.3272 12.9623 14.2281 12.9895C13.9761 13.0586 13.7167 13.17 13.45 13.3237C13.1278 13.5126 12.8278 13.7376 12.55 13.9987C12.2722 14.2543 12.0444 14.5237 11.8667 14.807C11.6459 15.1594 11.4965 15.4939 11.4188 15.8105C11.3947 15.9087 11.3092 15.982 11.2081 15.982Z" fill="#2E2A4F"/>
<path d="M29.2081 33.8609C29.1072 33.8609 29.0219 33.7878 28.9974 33.6899C28.9195 33.3778 28.7704 33.0459 28.55 32.6943C28.2889 32.272 27.9167 31.8804 27.4333 31.5193C27.013 31.2015 26.5926 30.9849 26.1722 30.8693C26.0726 30.8419 26 30.7536 26 30.6504C26 30.5491 26.0698 30.4619 26.1672 30.4341C26.5793 30.3164 26.9764 30.1254 27.3583 29.8609C27.7972 29.5554 28.1639 29.1887 28.4583 28.7609C28.7188 28.3799 28.8976 28.003 28.9948 27.6303C29.0202 27.5326 29.1062 27.4609 29.2071 27.4609C29.3091 27.4609 29.3956 27.5342 29.4205 27.6332C29.4765 27.8566 29.5642 28.0853 29.6833 28.3193C29.8333 28.6082 30.025 28.8859 30.2583 29.1526C30.4972 29.4137 30.7639 29.6498 31.0583 29.8609C31.4431 30.1337 31.8342 30.3253 32.2318 30.4358C32.3293 30.4629 32.4 30.5497 32.4 30.6509C32.4 30.7537 32.3272 30.8412 32.2281 30.8684C31.9761 30.9375 31.7167 31.0489 31.45 31.2026C31.1278 31.3915 30.8278 31.6165 30.55 31.8776C30.2722 32.1332 30.0444 32.4026 29.8667 32.6859C29.6459 33.0383 29.4965 33.3728 29.4188 33.6894C29.3947 33.7876 29.3092 33.8609 29.2081 33.8609Z" fill="#2E2A4F"/>
</g>
<defs>
<filter id="filter0_d_29517_12758" x="0" y="0.460938" width="40" height="40" filterUnits="userSpaceOnUse" color-interpolation-filters="sRGB">
<feFlood flood-opacity="0" result="BackgroundImageFix"/>
<feColorMatrix in="SourceAlpha" type="matrix" values="0 0 0 0 0 0 0 0 0 0 0 0 0 0 0 0 0 0 127 0" result="hardAlpha"/>
<feOffset/>
<feGaussianBlur stdDeviation="2"/>
<feComposite in2="hardAlpha" operator="out"/>
<feColorMatrix type="matrix" values="0 0 0 0 1 0 0 0 0 1 0 0 0 0 1 0 0 0 1 0"/>
<feBlend mode="normal" in2="BackgroundImageFix" result="effect1_dropShadow_29517_12758"/>
<feBlend mode="normal" in="SourceGraphic" in2="effect1_dropShadow_29517_12758" result="shape"/>
</filter>
</defs>
</svg>
