<svg width="21" height="24" viewBox="0 0 21 24" fill="none" xmlns="http://www.w3.org/2000/svg">
<path d="M7.69951 20.4772C7.45726 20.4772 7.25251 20.3018 7.19385 20.0668C7.00686 19.3177 6.64891 18.5212 6.12 17.6772C5.49333 16.6638 4.6 15.7239 3.44 14.8572C2.4311 14.0946 1.42219 13.5746 0.41329 13.2972C0.17434 13.2316 0 13.0197 0 12.7719C0 12.5289 0.167634 12.3195 0.401259 12.2527C1.39043 11.9703 2.34334 11.5118 3.26 10.8772C4.31333 10.1439 5.19333 9.26385 5.9 8.23719C6.52515 7.32261 6.95429 6.41809 7.18743 5.52362C7.2485 5.28929 7.45479 5.11719 7.69697 5.11719C7.94181 5.11719 8.14956 5.2931 8.20915 5.53062C8.34371 6.06685 8.55398 6.61571 8.83999 7.17719C9.20002 7.87052 9.65998 8.53718 10.22 9.17719C10.7933 9.80385 11.4334 10.3705 12.14 10.8772C13.0634 11.5318 14.0022 11.9916 14.9563 12.2568C15.1904 12.3219 15.36 12.5303 15.36 12.7732C15.36 13.0198 15.1853 13.2299 14.9475 13.2951C14.3427 13.4609 13.7202 13.7283 13.08 14.0972C12.3067 14.5505 11.5867 15.0905 10.92 15.7172C10.2533 16.3305 9.70667 16.9772 9.27997 17.6572C8.75005 18.5029 8.3917 19.3056 8.20508 20.0655C8.14717 20.3012 7.94212 20.4772 7.69951 20.4772Z" fill="white"/>
<path d="M3.20813 6.4C3.10719 6.4 3.02188 6.32691 2.99744 6.22899C2.91953 5.9169 2.77038 5.58499 2.55 5.23334C2.28889 4.8111 1.91667 4.41946 1.43333 4.05834C1.01296 3.74061 0.592579 3.52394 0.172204 3.40835C0.0726416 3.38099 0 3.2927 0 3.18945C0 3.08821 0.0698474 3.00094 0.167191 2.97315C0.579344 2.85547 0.97639 2.66442 1.35833 2.4C1.79722 2.09444 2.16389 1.72778 2.45833 1.3C2.71881 0.918928 2.89762 0.542042 2.99476 0.169346C3.02021 0.0717104 3.10616 0 3.20707 0C3.30909 0 3.39565 0.0732986 3.42048 0.172266C3.47654 0.395693 3.56416 0.624384 3.68333 0.858333C3.83334 1.14722 4.02499 1.425 4.25834 1.69167C4.49722 1.95278 4.7639 2.18889 5.05834 2.4C5.4431 2.67274 5.83424 2.86436 6.23181 2.97485C6.32934 3.00195 6.4 3.08878 6.4 3.19C6.4 3.29274 6.3272 3.38029 6.22813 3.40746C5.97613 3.47654 5.71674 3.58797 5.45002 3.74166C5.12778 3.93056 4.82778 4.15555 4.54998 4.41667C4.27222 4.67222 4.04445 4.94166 3.86666 5.22499C3.64586 5.57738 3.49654 5.91184 3.41878 6.22845C3.39466 6.32666 3.30922 6.4 3.20813 6.4Z" fill="white"/>
<path d="M17.2863 23.0406C17.1853 23.0406 17.1 22.9675 17.0756 22.8696C16.9977 22.5575 16.8485 22.2256 16.6281 21.874C16.367 21.4517 15.9948 21.0601 15.5115 20.699C15.0911 20.3812 14.6707 20.1646 14.2503 20.049C14.1508 20.0216 14.0781 19.9333 14.0781 19.8301C14.0781 19.7288 14.148 19.6416 14.2453 19.6138C14.6575 19.4961 15.0545 19.305 15.4365 19.0406C15.8753 18.7351 16.242 18.3684 16.5365 17.9406C16.7969 17.5596 16.9757 17.1827 17.0729 16.81C17.0983 16.7123 17.1843 16.6406 17.2852 16.6406C17.3872 16.6406 17.4738 16.7139 17.4986 16.8129C17.5547 17.0363 17.6423 17.265 17.7615 17.499C17.9115 17.7878 18.1031 18.0656 18.3365 18.3323C18.5753 18.5934 18.842 18.8295 19.1365 19.0406C19.5212 19.3134 19.9124 19.505 20.3099 19.6155C20.4075 19.6426 20.4781 19.7294 20.4781 19.8306C20.4781 19.9334 20.4053 20.0209 20.3063 20.0481C20.0543 20.1172 19.7949 20.2286 19.5281 20.3823C19.2059 20.5712 18.9059 20.7962 18.6281 21.0573C18.3503 21.3128 18.1226 21.5823 17.9448 21.8656C17.724 22.218 17.5747 22.5525 17.4969 22.8691C17.4728 22.9673 17.3873 23.0406 17.2863 23.0406Z" fill="white"/>
</svg>
